<svg xmlns="http://www.w3.org/2000/svg" width="512" height="512" viewBox="0 0 512.003 512.003"  fill="#029090" xmlns:v="https://vecta.io/nano"><circle cx="226" cy="436.002" r="45"/><circle cx="377" cy="436.002" r="45"/><path d="M15 61.002h62.553l72.418 253.513-5.68 11.36c-14.956 29.88 6.755 65.127 40.254 65.127H437c8.291 0 15-6.709 15-15s-6.709-15-15-15H184.545c-11.139 0-18.419-11.729-13.418-21.709l4.146-8.291H437c6.694 0 12.583-4.438 14.429-10.884l60-210a15.04 15.04 0 0 0-2.446-13.154 15.05 15.05 0 0 0-11.982-5.962H117.323L103.29 41.885c-1.846-6.445-7.734-10.884-14.429-10.884H15c-8.291 0-15 6.709-15 15s6.709 15.001 15 15.001z"/></svg>