<?xml version="1.0" encoding="utf-8"?>
<!-- Generator: Adobe Illustrator 16.0.0, SVG Export Plug-In . SVG Version: 6.00 Build 0)  -->
<!DOCTYPE svg PUBLIC "-//W3C//DTD SVG 1.1//EN" "http://www.w3.org/Graphics/SVG/1.1/DTD/svg11.dtd">
<svg version="1.1" id="Layer_1" xmlns="http://www.w3.org/2000/svg" xmlns:xlink="http://www.w3.org/1999/xlink" x="0px" y="0px"
	 width="1000px" height="1000px" viewBox="0.5 24.5 1000 1000" enable-background="new 0.5 24.5 1000 1000" xml:space="preserve">
<g>
	<path fill="#FFFFFF" d="M650.5,374.5v300h-300v-300H650.5 M710.5,314.5h-420v420h420V314.5L710.5,314.5z"/>
</g>
<g>
	
		<line fill="none" stroke="#FFFFFF" stroke-width="40" stroke-linecap="round" stroke-miterlimit="10" x1="60.5" y1="84.5" x2="250.5" y2="274.5"/>
	
		<line fill="none" stroke="#FFFFFF" stroke-width="40" stroke-linecap="round" stroke-miterlimit="10" x1="250.5" y1="274.5" x2="155.5" y2="274.5"/>
	
		<line fill="none" stroke="#FFFFFF" stroke-width="40" stroke-linecap="round" stroke-miterlimit="10" x1="250.5" y1="274.5" x2="250.5" y2="179.5"/>
</g>
<g>
	
		<line fill="none" stroke="#FFFFFF" stroke-width="40" stroke-linecap="round" stroke-miterlimit="10" x1="60.5" y1="964.5" x2="250.5" y2="774.5"/>
	
		<line fill="none" stroke="#FFFFFF" stroke-width="40" stroke-linecap="round" stroke-miterlimit="10" x1="250.5" y1="774.5" x2="250.5" y2="869.5"/>
	
		<line fill="none" stroke="#FFFFFF" stroke-width="40" stroke-linecap="round" stroke-miterlimit="10" x1="250.5" y1="774.5" x2="155.5" y2="774.5"/>
</g>
<g>
	
		<line fill="none" stroke="#FFFFFF" stroke-width="40" stroke-linecap="round" stroke-miterlimit="10" x1="940.5" y1="84.5" x2="750.5" y2="274.5"/>
	
		<line fill="none" stroke="#FFFFFF" stroke-width="40" stroke-linecap="round" stroke-miterlimit="10" x1="750.5" y1="274.5" x2="750.5" y2="179.5"/>
	
		<line fill="none" stroke="#FFFFFF" stroke-width="40" stroke-linecap="round" stroke-miterlimit="10" x1="750.5" y1="274.5" x2="845.5" y2="274.5"/>
</g>
<g>
	
		<line fill="none" stroke="#FFFFFF" stroke-width="40" stroke-linecap="round" stroke-miterlimit="10" x1="940.5" y1="964.503" x2="750.5" y2="774.503"/>
	
		<line fill="none" stroke="#FFFFFF" stroke-width="40" stroke-linecap="round" stroke-miterlimit="10" x1="750.5" y1="774.503" x2="845.5" y2="774.503"/>
	
		<line fill="none" stroke="#FFFFFF" stroke-width="40" stroke-linecap="round" stroke-miterlimit="10" x1="750.5" y1="774.503" x2="750.5" y2="869.503"/>
</g>
</svg>
